<svg xmlns="http://www.w3.org/2000/svg" viewBox="0 0 743.73 435.64"><defs><style>.cls-1{fill:#fff;}.cls-2{fill:#fcfaf5;}</style></defs><title>Asset 1</title><g id="Layer_2" data-name="Layer 2"><g id="Layer_1-2" data-name="Layer 1"><path class="cls-1" d="M0,435.64s44.49-133.35,168.27-139c0,0,18.61-110.56,177.44-59.06,0,0-18.88-221.39,276.67-165.3,0,0,28.06-61.48,121.35-72.27V435.64Z"/><path class="cls-2" d="M39.91,435.64S96,327.37,201.71,313.89c0,0,137-85.76,226,39.91,0,0,73.88-39.37,136.44-18.88,0,0-29.66-36.67-122.42-31.28,0,0-16.18-34-71.19-56.09,0,0,8.63-206.56,275.59-144,0,0,36.69-59.86,97.62-65.26V435.64Z"/></g></g></svg>