<svg xmlns="http://www.w3.org/2000/svg" viewBox="0 0 720.92 306.17"><defs><style>.cls-1{fill:#fff;}.cls-2{fill:#fcfaf5;}</style></defs><title>Asset 2</title><g id="Layer_2" data-name="Layer 2"><g id="Layer_1-2" data-name="Layer 1"><path class="cls-1" d="M0,158.26S47.56,19.12,214.21,104.87c0,0,30.74-85.75,96.27-101.12s151.28,17,194.16,89c0,0,54.2-12.95,87.37,69.57,0,0,135.91,5.39,128.63,143.86H0Z"/><path class="cls-2" d="M1,168.24s65.36-104.63,199.65-27c0,0,43.69-114.34,142.38-104.63s148.32,89,148.32,89,48.54,1.08,71.19,42.61c0,0-68,15.1-76,79.28,0,0,57.71-70.65,151-37.75s82,96.4,82,96.4H1Z"/></g></g></svg>